<svg id="Lag_1" data-name="Lag 1" xmlns="http://www.w3.org/2000/svg" viewBox="0 0 831.71 831.71"><defs><style>.cls-1{font-size:192px;fill:#1d1d1b;font-family:MyriadPro-Regular, Myriad Pro;}.cls-2{letter-spacing:-0.01em;}.cls-3{letter-spacing:-0.01em;}.cls-4{letter-spacing:0em;}.cls-5{fill:none;stroke:#1d1d1b;stroke-miterlimit:10;stroke-width:6px;}.cls-6{fill:#010101;}</style></defs><text class="cls-1" transform="translate(80.31 769.86)"><tspan class="cls-2">A</tspan><tspan class="cls-3" x="115.2" y="0">cc</tspan><tspan x="284.93" y="0">ou</tspan><tspan class="cls-4" x="496.13" y="0">n</tspan><tspan x="601.92" y="0">t</tspan></text><rect class="cls-5" x="3" y="3" width="825.71" height="825.71" rx="13"/><path class="cls-6" d="M723.32,435.36l-53.44-41.8a204.64,204.64,0,0,0,1.26-21.95,212.56,212.56,0,0,0-1.26-21.95l53.49-41.82c9.94-7.85,12.68-21.78,6.33-33.39l-55.58-96.16C668,167.21,654.39,162.15,642,166.73L578.9,192.05a215.58,215.58,0,0,0-37.85-22l-9.6-66.89a25.72,25.72,0,0,0-25.68-22.32H394.32c-13.06,0-24.11,9.59-25.66,22.07L359,170.07a223.6,223.6,0,0,0-37.8,22L258,166.68A25.77,25.77,0,0,0,226.1,178l-55.66,96.31a26,26,0,0,0,6.3,33.54l53.45,41.77a211.29,211.29,0,0,0-1.26,21.95c0,6.66.41,13.76,1.21,21.95l-53.49,41.85c-9.91,7.84-12.63,21.78-6.3,33.38L225.93,565c6,11,19.65,16.08,32.15,11.55l63.07-25.32a217.91,217.91,0,0,0,37.87,22L368.61,640a25.74,25.74,0,0,0,25.68,22.32H505.75c13.06,0,24.11-9.6,25.66-22.08L541,573.17a222.82,222.82,0,0,0,37.8-22l63.24,25.39A25.84,25.84,0,0,0,674,565.2l55.87-96.65A26.17,26.17,0,0,0,723.32,435.36Zm-14.65,21.32L651,554l-69.36-27.86a12.15,12.15,0,0,0-11.78,1.55c-15,11.24-29.54,19.69-44.41,25.78A12.1,12.1,0,0,0,518,563l-12.23,75.14-113.08-1.29L382.08,563a12.15,12.15,0,0,0-7.41-9.5,193.4,193.4,0,0,1-44.32-25.71,12.14,12.14,0,0,0-11.92-1.65l-71.35,26.92L191.5,456.92a2,2,0,0,1,.17-2.5l58.8-46a12.13,12.13,0,0,0,4.55-11,205,205,0,0,1-1.86-25.8A209.4,209.4,0,0,1,255,345.8a12.08,12.08,0,0,0-4.55-11l-59.09-48.2,57.71-97.35,69.37,27.87a12.12,12.12,0,0,0,11.8-1.55c15-11.27,29.53-19.7,44.41-25.78a12.18,12.18,0,0,0,7.39-9.5l12.26-75.16,113.1,1.31L518,180.25a12.17,12.17,0,0,0,7.42,9.5,192.11,192.11,0,0,1,44.31,25.7,12,12,0,0,0,11.9,1.63L653,190.16l55.59,96.16a2,2,0,0,1-.17,2.47l-58.81,46a12.11,12.11,0,0,0-4.55,11,206.47,206.47,0,0,1,1.86,25.81,205.86,205.86,0,0,1-1.86,25.8,12.15,12.15,0,0,0,4.55,11L708.3,454.4A1.93,1.93,0,0,1,708.67,456.68Z" transform="translate(-34 -34.21)"/><path class="cls-6" d="M450,250.46A121.15,121.15,0,1,0,571.17,371.61,121.28,121.28,0,0,0,450,250.46Zm0,218.06a96.92,96.92,0,1,1,96.92-96.91A97,97,0,0,1,450,468.52Z" transform="translate(-34 -34.21)"/></svg>