<svg id="Lag_1" data-name="Lag 1" xmlns="http://www.w3.org/2000/svg" viewBox="0 0 831.71 832.2"><defs><style>.cls-1{fill:#00945c;}.cls-2,.cls-3,.cls-4,.cls-5{isolation:isolate;}.cls-3,.cls-4,.cls-5{font-size:192px;fill:#1d1d1b;font-family:ArialMT, Arial;}.cls-3{letter-spacing:-0.07em;}.cls-4{letter-spacing:-0.01em;}.cls-6{fill:none;stroke:#1d1d1b;stroke-miterlimit:10;stroke-width:6px;}.cls-7{fill:#010101;}</style></defs><path class="cls-1" d="M718.31,440V548.17a93.23,93.23,0,0,1-93.23,93.23h0a105,105,0,0,1-105-105h0V440a61,61,0,0,1,61-61h76.23a61,61,0,0,1,61,61Z"/><g class="cls-2"><text class="cls-3" transform="translate(80.31 769.86)">A</text><text class="cls-4" transform="translate(195.51 769.86)">cc</text><text class="cls-5" transform="translate(365.24 769.86)">ou</text><text class="cls-5" transform="translate(576.44 769.86)">n</text><text class="cls-5" transform="translate(682.23 769.86)">t</text></g><rect class="cls-6" x="3" y="3" width="825.71" height="825.71" rx="13"/><path class="cls-7" d="M374.72,335.08A139.69,139.69,0,1,0,235,195.4,139.69,139.69,0,0,0,374.72,335.08Zm0-252.94A113.26,113.26,0,1,1,261.47,195.41h0A113.25,113.25,0,0,1,374.71,82.14Z"/><path class="cls-7" d="M737.74,413.18,623.83,352.53a12.88,12.88,0,0,0-12.56.13L507,409.79c-38.19-28.42-83.92-43.22-132.54-43.22-60.53.14-116.69,23.66-158.32,66.48C174,476.22,150.85,535.29,151,599.38a13.25,13.25,0,0,0,13.21,13.22l367.65-.66a170.77,170.77,0,0,0,64.75,49.43l15.33,6.73a12,12,0,0,0,5.29,1.06,14.93,14.93,0,0,0,5.28-1.06l17.32-7.53A171.13,171.13,0,0,0,744.74,502.65V424.94A13.33,13.33,0,0,0,737.74,413.18ZM177.81,586c2.78-51.94,23-99.38,57.36-134.66C271.77,413.71,321.33,393,374.59,393H375c43.75,0,84.72,13.75,118.68,39.78v71.49a171,171,0,0,0,20.61,81.28Zm540.51-83.39a144.75,144.75,0,0,1-88.94,133.61h-.14l-12,5.15-10-4.36a145.23,145.23,0,0,1-87.08-132.94v-71.5l97.65-53.52,100.56,53.7Z"/><path d="M575.32,479.08c-5.07-7.41-14-8.27-19.92-1.94s-6.62,17.48-1.55,24.89l32.06,46.79c2.69,3.91,6.61,6.16,10.74,6.18a12.32,12.32,0,0,0,8.89-3.89l74.58-75.73c6-6.2,6.93-17.34,2-24.9s-13.86-8.66-19.91-2.47l-63.84,65Z"/></svg>