<svg id="Lag_1" data-name="Lag 1" xmlns="http://www.w3.org/2000/svg" viewBox="0 0 831.71 831.71"><defs><style>.cls-1{fill:#be1622;}.cls-2{font-size:192px;fill:#1d1d1b;font-family:MyriadPro-Regular, Myriad Pro;}.cls-3{letter-spacing:-0.01em;}.cls-4{letter-spacing:-0.01em;}.cls-5{letter-spacing:0em;}.cls-6{fill:none;stroke:#1d1d1b;stroke-miterlimit:10;stroke-width:6px;}.cls-7{fill:#010101;}</style></defs><path class="cls-1" d="M583,445.35H691.13a93.23,93.23,0,0,1,93.23,93.23v0a105,105,0,0,1-105,105H583a61,61,0,0,1-61-61V506.35a61,61,0,0,1,61-61Z" transform="translate(1163.66 -142.96) rotate(90)"/><text class="cls-2" transform="translate(80.31 769.86)"><tspan class="cls-3">A</tspan><tspan class="cls-4" x="115.2" y="0">cc</tspan><tspan x="284.93" y="0">ou</tspan><tspan class="cls-5" x="496.13" y="0">n</tspan><tspan x="601.92" y="0">t</tspan></text><rect class="cls-6" x="3" y="3" width="825.71" height="825.71" rx="13"/><path class="cls-7" d="M408.72,369.29A139.69,139.69,0,1,0,269,229.61,139.68,139.68,0,0,0,408.72,369.29Zm0-252.94A113.26,113.26,0,1,1,295.47,229.61,113.25,113.25,0,0,1,408.72,116.35Z" transform="translate(-34 -34.21)"/><path class="cls-7" d="M771.74,447.39,657.83,386.74a12.88,12.88,0,0,0-12.56.13L541,444c-38.19-28.42-83.92-43.22-132.54-43.22-60.53.14-116.69,23.66-158.32,66.48C208,510.43,184.85,569.5,185,633.59a13.25,13.25,0,0,0,13.21,13.22l367.65-.66a170.77,170.77,0,0,0,64.75,49.43l15.33,6.73a12.07,12.07,0,0,0,5.29,1.06,14.93,14.93,0,0,0,5.28-1.06l17.32-7.53A171.12,171.12,0,0,0,778.74,536.86V459.15A13.34,13.34,0,0,0,771.74,447.39ZM211.81,620.25c2.78-51.94,23-99.38,57.36-134.66,36.6-37.67,86.16-58.42,139.42-58.42H409c43.75,0,84.72,13.75,118.68,39.78v71.49a171,171,0,0,0,20.61,81.28Zm540.51-83.39a144.75,144.75,0,0,1-88.94,133.61h-.14l-12,5.15-10.05-4.36a145.23,145.23,0,0,1-87.08-132.94v-71.5l97.65-53.52L752.32,467Z" transform="translate(-34 -34.21)"/><rect class="cls-7" x="575.2" y="525.34" width="151.57" height="26.09" rx="13.05" transform="translate(608.31 -340.55) rotate(49.82)"/><rect class="cls-7" x="581.85" y="526.51" width="151.57" height="26.09" rx="13.05" transform="translate(1443.06 276.99) rotate(125.06)"/></svg>