<svg id="Lag_1" data-name="Lag 1" xmlns="http://www.w3.org/2000/svg" viewBox="0 0 831.71 831.71"><defs><style>.cls-1{font-size:192px;fill:#1d1d1b;font-family:MyriadPro-Regular, Myriad Pro;}.cls-2{letter-spacing:0em;}.cls-3{letter-spacing:0em;}.cls-4{fill:none;stroke:#1d1d1b;stroke-miterlimit:10;stroke-width:6px;}.cls-5{fill:#010101;}</style></defs><text class="cls-1" transform="translate(173.81 769.86)"><tspan class="cls-2">A</tspan><tspan x="116.93" y="0">la</tspan><tspan class="cls-3" x="254.78" y="0">r</tspan><tspan x="318.33" y="0">m</tspan></text><rect class="cls-4" x="3" y="3" width="825.71" height="825.71" rx="13"/><path class="cls-5" d="M738.48,510.87,541.55,136.15a103.4,103.4,0,0,0-183,0L161.58,510.87A103.39,103.39,0,0,0,253.1,662.36H647a103.4,103.4,0,0,0,91.52-151.49ZM684,581.32a43.47,43.47,0,0,1-37,20.88H253.1a43.24,43.24,0,0,1-38.28-63.35L411.75,164.13a43.24,43.24,0,0,1,76.55,0L685.23,538.85A43.44,43.44,0,0,1,684,581.32Z" transform="translate(-34 -34.21)"/><polygon class="cls-5" points="404.61 441.04 427.45 441.04 449.74 212.18 382.31 212.18 404.61 441.04"/><path class="cls-5" d="M450,496.51a32.59,32.59,0,1,0,32.58,32.59A32.58,32.58,0,0,0,450,496.51Z" transform="translate(-34 -34.21)"/></svg>