<svg id="Lag_1" data-name="Lag 1" xmlns="http://www.w3.org/2000/svg" viewBox="0 0 831.71 831.71"><defs><style>.cls-1{font-size:192px;}.cls-1,.cls-4{fill:#1d1d1b;font-family:MyriadPro-Regular, Myriad Pro;}.cls-2{fill:none;stroke:#1d1d1b;stroke-miterlimit:10;stroke-width:6px;}.cls-3{fill:#010101;}.cls-4{font-size:12px;}.cls-5{letter-spacing:-0.01em;}.cls-6{letter-spacing:-0.01em;}.cls-7{letter-spacing:0em;}</style></defs><text class="cls-1" transform="translate(267.12 769.86)">Exit</text><rect class="cls-2" x="3" y="3" width="825.71" height="825.71" rx="13"/><path class="cls-3" d="M475,609.44H264.81a23.37,23.37,0,0,1-23.35-23.36V165.7a23.36,23.36,0,0,1,23.35-23.35H475a23.36,23.36,0,1,0,0-46.71H264.81a70.14,70.14,0,0,0-70.06,70.06V586.08a70.14,70.14,0,0,0,70.06,70.06H475a23.35,23.35,0,1,0,0-46.7Z" transform="translate(-34 -34.21)"/><path class="cls-3" d="M715.13,359.26l-142-140.13a23.35,23.35,0,1,0-32.79,33.26L641.82,352.54H369.91a23.35,23.35,0,1,0,0,46.7H641.82L540.35,499.39a23.35,23.35,0,1,0,32.79,33.25l142-140.12a23.35,23.35,0,0,0,0-33.26Z" transform="translate(-34 -34.21)"/><text class="cls-4" transform="translate(342.29 95.5)"><tspan class="cls-5">L</tspan><tspan x="5.5" y="0">o</tspan><tspan class="cls-6" x="12.08" y="0">r</tspan><tspan class="cls-7" x="15.89" y="0">em ipsum</tspan></text></svg>