<svg id="Lag_1" data-name="Lag 1" xmlns="http://www.w3.org/2000/svg" viewBox="0 0 831.71 831.71"><defs><style>.cls-1{fill:#010101;}.cls-2{font-size:192px;fill:#1d1d1b;font-family:MyriadPro-Regular, Myriad Pro;}.cls-3{letter-spacing:0em;}.cls-4{fill:none;stroke:#1d1d1b;stroke-miterlimit:10;stroke-width:6px;}</style></defs><path class="cls-1" d="M714.54,340.46a16.47,16.47,0,0,0-16.47,16.47C698.07,493.71,586.79,605,450,605S201.93,493.71,201.93,356.93,313.22,108.86,450,108.86a246.27,246.27,0,0,1,163.38,61.4L561.69,222A173.89,173.89,0,0,0,450,181.74c-96.6,0-175.18,78.59-175.18,175.19S353.4,532.12,450,532.12s175.19-78.59,175.19-175.19a16.47,16.47,0,1,0-32.93,0c0,78.44-63.82,142.26-142.26,142.26S307.75,435.37,307.75,356.93,371.56,214.67,450,214.67a141.25,141.25,0,0,1,88.28,30.69L486,297.62a69.31,69.31,0,1,0,23.29,23.29L648.69,181.52a16.45,16.45,0,0,0,0-23.29A281,281,0,0,0,251.3,555.62,281,281,0,0,0,731,356.93,16.46,16.46,0,0,0,714.54,340.46ZM450,393.37a36.44,36.44,0,1,1,25.77-62.21h0A36.44,36.44,0,0,1,450,393.37Z" transform="translate(-34.14 -34.14)"/><text class="cls-2" transform="translate(185 782.71)">S<tspan class="cls-3" x="94.66" y="0">C</tspan><tspan x="206.78" y="0">AN</tspan></text><rect class="cls-4" x="3" y="3" width="825.71" height="825.71" rx="13"/></svg>