<svg id="Lag_1" data-name="Lag 1" xmlns="http://www.w3.org/2000/svg" viewBox="0 0 831.71 831.71"><defs><style>.cls-1{fill:#010101;}.cls-2{font-size:192px;fill:#1d1d1b;font-family:MyriadPro-Regular, Myriad Pro;}.cls-3{letter-spacing:0em;}.cls-4{letter-spacing:0em;}.cls-5{fill:none;stroke:#1d1d1b;stroke-miterlimit:10;stroke-width:6px;}</style></defs><path class="cls-1" d="M714.39,340.53A16.47,16.47,0,0,0,697.93,357c0,136.79-111.29,248.07-248.07,248.07S201.79,493.79,201.79,357,313.07,108.93,449.85,108.93a246.28,246.28,0,0,1,163.39,61.4L561.55,222a173.89,173.89,0,0,0-111.69-40.21c-96.6,0-175.19,78.59-175.19,175.19s78.59,175.19,175.19,175.19S625,453.6,625,357a16.47,16.47,0,0,0-32.93,0c0,78.44-63.81,142.26-142.25,142.26S307.6,435.44,307.6,357s63.82-142.26,142.26-142.26a141.2,141.2,0,0,1,88.28,30.7l-52.26,52.25A69.37,69.37,0,1,0,509.16,321L648.55,181.59a16.48,16.48,0,0,0,0-23.29A281,281,0,0,0,251.16,555.7,281,281,0,0,0,730.86,357,16.48,16.48,0,0,0,714.39,340.53ZM449.86,393.44a36.44,36.44,0,1,1,25.76-62.21h0a36.44,36.44,0,0,1-25.77,62.2Z" transform="translate(-34 -34.21)"/><text class="cls-2" transform="translate(168.47 782.71)"><tspan class="cls-3">S</tspan><tspan x="94.08" y="0">t</tspan><tspan class="cls-4" x="157.63" y="0">a</tspan><tspan x="249.41" y="0">tus</tspan></text><rect class="cls-5" x="3" y="3" width="825.71" height="825.71" rx="13"/></svg>